<?xml version="1.0" encoding="UTF-8" standalone="no"?>
<svg
        xmlns:dc="http://purl.org/dc/elements/1.1/"
        xmlns:cc="http://creativecommons.org/ns#"
        xmlns:rdf="http://www.w3.org/1999/02/22-rdf-syntax-ns#"
        xmlns:sodipodi="http://sodipodi.sourceforge.net/DTD/sodipodi-0.dtd"
        xmlns:inkscape="http://www.inkscape.org/namespaces/inkscape"
        xmlns="http://www.w3.org/2000/svg"
        id="svg173"
        viewBox="0 0 165.72898 209.99978"
        version="1.1"
        sodipodi:docname="Ministère_de_la_Justice_(logo,_2017).svg"
        width="165.72899"
        height="209.99979"
        inkscape:version="0.92.2 (5c3e80d, 2017-08-06)">
    <metadata
            id="metadata122">
        <rdf:RDF>
            <cc:Work
                    rdf:about="">
                <dc:format>image/svg+xml</dc:format>
                <dc:type
                        rdf:resource="http://purl.org/dc/dcmitype/StillImage"/>
                <dc:title></dc:title>
            </cc:Work>
        </rdf:RDF>
    </metadata>
    <sodipodi:namedview
            pagecolor="#ffffff"
            bordercolor="#666666"
            borderopacity="1"
            objecttolerance="10"
            gridtolerance="10"
            guidetolerance="10"
            inkscape:pageopacity="0"
            inkscape:pageshadow="2"
            inkscape:window-width="1920"
            inkscape:window-height="1017"
            id="namedview120"
            showgrid="false"
            fit-margin-left="5"
            fit-margin-top="5"
            fit-margin-right="5"
            fit-margin-bottom="5"
            inkscape:zoom="0.76227389"
            inkscape:cx="-67.802369"
            inkscape:cy="42.957026"
            inkscape:window-x="-8"
            inkscape:window-y="-8"
            inkscape:window-maximized="1"
            inkscape:current-layer="svg173"/>
    <defs
            id="defs177">
        <clipPath
                id="clipPath54">
            <path
                    id="path56"
                    d="m 1101.28,84.02 h 66.02 V 165 h -66.02 z"
                    inkscape:connector-curvature="0"/>
        </clipPath>
    </defs>
    <g
            id="g239"
            transform="matrix(1.3020819,0,0,1.3020819,4.0234386,4.1536468)">
        <g
                id="cadre_noir">
            <path
                    d="M 1,0.9 H 120.1 V 154 H 1 Z"
                    style="fill:#ffffff;stroke:#000000;stroke-width:0.5;stroke-linecap:square;stroke-miterlimit:10"
                    id="rect4"
                    inkscape:connector-curvature="0"/>
            <path
                    d="M 1,80.2 H 120.1"
                    style="fill:none;stroke:#000000;stroke-width:0.5;stroke-miterlimit:10"
                    id="line6"
                    inkscape:connector-curvature="0"/>
        </g>
        <path
                style="fill:#000000;stroke-width:0.09406947"
                d="m 47.18,129 a 1.35,1.35 0 0 1 -0.66,-0.35 c -0.24,-0.25 -0.29,-0.37 -0.28,-0.7 0.01,-0.43 0.27,-0.73 0.63,-0.72 0.31,0 0.44,0.12 0.76,0.71 0.32,0.62 0.56,0.73 0.86,0.4 0.17,-0.18 0.18,-0.39 0.2,-4.02 0.02,-2.1 0.01,-4 -0.02,-4.22 -0.07,-0.47 -0.33,-0.7 -0.9,-0.77 -0.21,-0.03 -0.37,-0.1 -0.37,-0.15 0,-0.06 0.74,-0.1 1.98,-0.12 1.58,-0.02 1.98,0 1.95,0.1 -0.02,0.06 -0.21,0.13 -0.42,0.14 a 0.86,0.86 0 0 0 -0.6,0.27 l -0.23,0.24 -0.05,3.5 c -0.06,3.99 -0.09,4.14 -0.82,4.96 -0.59,0.65 -1.23,0.88 -2.03,0.74 z m 8.73,0.01 c -1.43,-0.16 -2.28,-0.77 -2.74,-1.97 -0.13,-0.36 -0.17,-0.93 -0.21,-3.77 -0.07,-3.99 -0.03,-3.87 -1.08,-3.97 -0.16,-0.01 -0.3,-0.08 -0.32,-0.14 -0.03,-0.1 0.41,-0.12 2,-0.12 1.74,0 2.02,0.02 2.02,0.14 0,0.1 -0.1,0.14 -0.37,0.14 a 0.9,0.9 0 0 0 -0.63,0.23 l -0.27,0.23 v 3.37 c 0,3.02 0.02,3.42 0.18,3.86 0.2,0.6 0.8,1.17 1.42,1.34 1.12,0.32 2.68,-0.16 3.25,-0.98 0.44,-0.65 0.48,-1.04 0.45,-4.5 -0.03,-3.59 0,-3.45 -0.8,-3.54 -0.24,-0.03 -0.45,-0.1 -0.47,-0.17 -0.03,-0.1 0.33,-0.12 1.61,-0.12 1.4,0 1.65,0.02 1.65,0.14 0,0.1 -0.1,0.14 -0.36,0.14 -0.4,0 -0.82,0.31 -0.9,0.68 -0.02,0.12 -0.06,1.6 -0.08,3.27 -0.03,2.79 -0.05,3.11 -0.23,3.65 -0.1,0.33 -0.31,0.74 -0.45,0.93 -0.67,0.88 -2.12,1.34 -3.67,1.16 z m 6.99,0.04 c -0.04,-0.04 -0.07,-0.8 -0.07,-1.7 0,-1.65 0.08,-2.01 0.28,-1.23 0.3,1.16 0.67,1.71 1.44,2.08 1.55,0.76 3.19,0.09 3.19,-1.3 0,-0.83 -0.42,-1.26 -2.27,-2.36 -1.49,-0.88 -2.2,-1.5 -2.52,-2.16 a 2.52,2.52 0 0 1 1.23,-3.26 c 0.26,-0.14 0.63,-0.22 1.12,-0.25 0.62,-0.04 0.83,0 1.42,0.2 0.9,0.32 1.16,0.32 1.3,0.02 0.06,-0.13 0.16,-0.24 0.23,-0.24 0.1,0 0.13,0.34 0.13,1.65 0,1.35 -0.03,1.64 -0.13,1.64 -0.09,0 -0.16,-0.14 -0.2,-0.4 -0.22,-1.37 -1.26,-2.32 -2.53,-2.32 -0.74,0 -1.28,0.3 -1.55,0.87 -0.25,0.5 -0.25,0.66 -0.01,1.15 0.22,0.46 0.75,0.87 2.17,1.7 1.3,0.76 1.53,0.91 2,1.35 1.3,1.2 1,3.4 -0.59,4.19 -0.58,0.29 -0.87,0.35 -1.65,0.34 -0.43,0 -0.93,-0.09 -1.42,-0.24 -1,-0.32 -1.2,-0.31 -1.37,0.05 -0.07,0.16 -0.17,0.26 -0.2,0.22 z m 24.86,-0.04 c -2.2,-0.25 -3.74,-2.03 -3.91,-4.53 -0.19,-2.57 1.25,-4.8 3.52,-5.48 1.03,-0.3 2.02,-0.2 3.37,0.37 0.4,0.17 0.4,0.17 0.64,-0.05 0.13,-0.12 0.23,-0.27 0.23,-0.34 0,-0.07 0.06,-0.13 0.13,-0.13 0.14,0 0.14,0.08 0.3,2.42 0.08,0.98 -0.03,1.15 -0.28,0.44 -0.5,-1.47 -1.65,-2.39 -3.01,-2.39 -2.1,0 -3.34,1.76 -3.34,4.7 0,2.17 0.68,3.51 2.11,4.16 0.38,0.16 0.65,0.2 1.37,0.21 0.77,0.01 0.96,-0.02 1.4,-0.24 0.56,-0.26 0.97,-0.61 1.53,-1.3 0.43,-0.53 0.56,-0.44 0.21,0.16 a 4.4,4.4 0 0 1 -1.75,1.63 4.27,4.27 0 0 1 -2.52,0.37 z m -66.98,-0.27 c 0,-0.05 0.19,-0.12 0.41,-0.16 0.27,-0.03 0.5,-0.14 0.64,-0.3 l 0.22,-0.22 v -8.28 l -0.27,-0.23 a 0.9,0.9 0 0 0 -0.63,-0.23 c -0.27,0 -0.37,-0.04 -0.37,-0.14 0,-0.12 0.3,-0.14 2.12,-0.14 1.66,0 2.12,0.03 2.09,0.12 -0.02,0.06 -0.26,0.14 -0.53,0.17 -0.36,0.03 -0.55,0.11 -0.74,0.3 l -0.26,0.26 v 4 c 0,3.7 0.01,4 0.17,4.15 0.15,0.15 0.35,0.17 1.7,0.17 1.37,0 1.55,-0.03 1.9,-0.21 0.48,-0.25 1,-0.85 1.23,-1.4 0.17,-0.4 0.31,-0.53 0.32,-0.3 0,0.07 -0.16,0.66 -0.35,1.32 l -0.36,1.2 h -3.65 c -2.2,0 -3.64,-0.03 -3.64,-0.08 z m 8.56,-0.06 c 0,-0.08 0.07,-0.14 0.16,-0.14 0.1,0 0.3,-0.08 0.47,-0.18 0.39,-0.24 0.62,-0.73 2.62,-5.63 1.12,-2.73 1.63,-3.87 1.73,-3.85 0.08,0.01 0.83,1.74 1.88,4.35 a 129.7,129.7 0 0 0 1.94,4.64 c 0.2,0.35 0.67,0.67 0.97,0.67 0.12,0 0.2,0.06 0.2,0.14 0,0.12 -0.27,0.14 -1.84,0.14 -1.41,0 -1.83,-0.02 -1.8,-0.11 0.02,-0.06 0.17,-0.14 0.33,-0.18 0.72,-0.14 0.74,-0.51 0.14,-2.01 l -0.38,-0.94 h -3.72 l -0.41,1.02 c -0.6,1.46 -0.56,1.8 0.21,1.93 0.2,0.03 0.37,0.11 0.4,0.18 0.02,0.09 -0.3,0.11 -1.43,0.11 -1.25,0 -1.47,-0.02 -1.47,-0.14 z m 6.14,-3.67 c 0.05,-0.06 -1.39,-3.7 -1.52,-3.83 a 31.96,31.96 0 0 0 -1.61,3.77 c 0,0.08 0.41,0.11 1.54,0.11 0.84,0 1.56,-0.02 1.59,-0.05 z m 36.66,3.73 c 0,-0.05 0.2,-0.12 0.44,-0.16 0.27,-0.04 0.53,-0.15 0.66,-0.28 l 0.22,-0.22 v -8.48 h -0.78 c -0.43,0 -0.92,0.05 -1.1,0.1 -0.55,0.16 -0.92,0.61 -1.08,1.34 -0.18,0.82 -0.34,-0.66 -0.18,-1.65 l 0.06,-0.35 h 3.8 c 2.96,0 3.8,0.03 3.84,0.12 0.02,0.06 0.05,0.57 0.08,1.13 0.04,0.81 0.03,1 -0.08,1 -0.07,0 -0.15,-0.15 -0.19,-0.38 a 1.56,1.56 0 0 0 -0.4,-0.75 c -0.38,-0.42 -0.95,-0.58 -1.96,-0.54 l -0.65,0.03 v 8.44 l 0.25,0.22 c 0.14,0.12 0.43,0.24 0.64,0.28 0.88,0.15 0.28,0.23 -1.6,0.23 -1.16,0 -1.97,-0.03 -1.97,-0.08 z m 6.77,0 c 0,-0.05 0.18,-0.12 0.4,-0.15 0.45,-0.07 0.65,-0.19 0.81,-0.49 0.08,-0.15 0.11,-1.35 0.11,-4.22 v -4 l -0.27,-0.28 a 0.78,0.78 0 0 0 -0.66,-0.28 c -0.28,0 -0.39,-0.04 -0.39,-0.14 0,-0.12 0.26,-0.14 1.98,-0.12 1.23,0.02 1.98,0.06 1.98,0.12 0,0.05 -0.2,0.12 -0.43,0.15 -0.26,0.03 -0.5,0.13 -0.64,0.26 l -0.2,0.2 v 8.3 l 0.24,0.21 c 0.14,0.12 0.42,0.24 0.63,0.27 0.21,0.04 0.41,0.1 0.44,0.16 0.04,0.06 -0.64,0.1 -1.97,0.1 -1.2,0 -2.03,-0.04 -2.03,-0.1 z m 14.2,0 c 0,-0.05 0.2,-0.12 0.44,-0.16 0.24,-0.03 0.54,-0.16 0.68,-0.28 l 0.25,-0.21 v -8.29 l -0.2,-0.21 a 1.13,1.13 0 0 0 -0.65,-0.26 c -0.23,-0.03 -0.43,-0.1 -0.44,-0.15 -0.03,-0.11 7.07,-0.18 7.18,-0.07 0.1,0.1 0.13,2.05 0.03,2.03 -0.05,0 -0.16,-0.25 -0.26,-0.54 -0.12,-0.38 -0.26,-0.6 -0.5,-0.78 -0.34,-0.26 -0.36,-0.26 -2.06,-0.3 l -1.72,-0.03 -0.06,0.22 c -0.03,0.12 -0.04,1 -0.03,1.96 l 0.03,1.74 1.22,0.03 c 0.7,0.02 1.38,-0.01 1.57,-0.07 0.43,-0.13 0.7,-0.44 0.77,-0.94 0.04,-0.2 0.1,-0.38 0.16,-0.38 0.05,0 0.09,0.64 0.09,1.7 0,1 -0.04,1.69 -0.1,1.69 -0.04,0 -0.1,-0.16 -0.14,-0.36 -0.09,-0.47 -0.3,-0.83 -0.6,-0.97 a 6.83,6.83 0 0 0 -1.58,-0.16 l -1.33,-0.04 -0.07,0.26 c -0.04,0.14 -0.04,1.06 -0.01,2.04 0.04,1.49 0.07,1.81 0.2,1.94 0.23,0.23 3.16,0.23 3.59,0 0.37,-0.2 0.92,-0.81 1.16,-1.3 0.19,-0.35 0.36,-0.53 0.44,-0.45 0.02,0.02 -0.14,0.57 -0.36,1.23 l -0.4,1.2 h -3.64 c -2.21,0 -3.65,-0.04 -3.65,-0.1 z M 37.42,111 34.33,107.12 c -1.57,-2 -2.92,-3.65 -2.98,-3.67 -0.1,-0.03 -0.12,0.56 -0.11,2.77 0,3.2 0.07,4.1 0.3,4.33 0.09,0.08 0.36,0.18 0.6,0.2 0.25,0.04 0.44,0.1 0.43,0.15 -0.01,0.06 -0.66,0.1 -1.63,0.12 -1.27,0.02 -1.6,0 -1.57,-0.1 0.02,-0.06 0.16,-0.12 0.32,-0.14 0.45,-0.04 0.76,-0.2 0.87,-0.45 0.07,-0.16 0.1,-1.42 0.1,-4.08 v -3.84 l -0.4,-0.37 a 2.06,2.06 0 0 0 -0.9,-0.5 c -0.26,-0.07 -0.48,-0.16 -0.48,-0.2 0,-0.05 0.57,-0.08 1.26,-0.08 h 1.26 l 2.68,3.41 2.87,3.65 0.2,0.23 v -6.53 l -0.2,-0.25 c -0.17,-0.18 -0.34,-0.26 -0.67,-0.3 -0.96,-0.1 -0.36,-0.2 1.2,-0.2 1.04,0 1.65,0.03 1.65,0.08 0,0.06 -0.1,0.1 -0.24,0.1 -0.4,0 -0.88,0.25 -0.98,0.52 -0.06,0.15 -0.1,1.98 -0.1,4.7 0,2.78 -0.03,4.48 -0.09,4.51 -0.05,0.03 -0.18,-0.05 -0.3,-0.19 z m 7.73,-1.41 c 0,-1.02 0.04,-1.65 0.1,-1.65 0.05,0 0.11,0.12 0.14,0.26 0.27,1.2 0.65,1.77 1.46,2.17 0.49,0.25 0.7,0.3 1.23,0.3 1.23,0 1.96,-0.57 1.96,-1.53 0,-0.25 -0.04,-0.55 -0.1,-0.67 -0.24,-0.46 -0.86,-0.96 -2.15,-1.73 -1.57,-0.93 -2.43,-1.7 -2.62,-2.34 a 2.78,2.78 0 0 1 0.11,-1.87 c 0.62,-1.34 2.18,-1.84 3.85,-1.23 0.82,0.3 1.1,0.28 1.27,-0.09 0.23,-0.5 0.3,-0.12 0.3,1.51 0,1.27 -0.02,1.64 -0.12,1.64 -0.07,0 -0.19,-0.27 -0.29,-0.66 -0.29,-1.11 -1.03,-1.87 -2.05,-2.08 -0.7,-0.15 -1.22,0 -1.7,0.5 -0.37,0.39 -0.51,0.84 -0.4,1.28 0.1,0.45 0.97,1.17 2.4,2 1.55,0.9 2.19,1.44 2.5,2.12 0.45,0.95 0.22,2.1 -0.57,2.89 -0.56,0.55 -1.1,0.76 -2.02,0.8 -0.7,0.03 -0.93,0 -1.73,-0.25 -0.98,-0.3 -1.21,-0.3 -1.33,0.08 -0.16,0.52 -0.24,0.06 -0.24,-1.45 z m -33.4,1.32 c 0,-0.1 0.1,-0.15 0.33,-0.15 0.45,0 0.78,-0.17 0.9,-0.46 0.07,-0.17 0.1,-1.5 0.07,-4.28 L 13.03,102 12.77,101.78 a 1.54,1.54 0 0 0 -0.63,-0.28 c -0.78,-0.13 -0.35,-0.24 0.96,-0.24 h 1.34 L 16.1,105 c 0.92,2.05 1.7,3.75 1.75,3.76 0.05,0.02 0.83,-1.65 1.74,-3.71 l 1.64,-3.74 1.33,-0.03 c 0.74,-0.01 1.33,0.01 1.33,0.06 0,0.05 -0.17,0.1 -0.39,0.14 -0.24,0.03 -0.48,0.14 -0.63,0.3 l -0.25,0.24 v 8.29 l 0.27,0.22 a 0.9,0.9 0 0 0 0.63,0.23 c 0.27,0 0.37,0.04 0.37,0.14 0,0.12 -0.28,0.14 -1.97,0.14 -1.7,0 -1.98,-0.02 -1.98,-0.14 0,-0.1 0.1,-0.14 0.37,-0.14 0.26,0 0.46,-0.07 0.64,-0.23 l 0.26,-0.22 0.03,-3.7 c 0.02,-2.27 0,-3.66 -0.06,-3.6 -0.05,0.04 -0.87,1.86 -1.83,4.04 A 41.2,41.2 0 0 1 17.48,111 c -0.07,0 -0.88,-1.7 -1.9,-4.02 a 68.83,68.83 0 0 0 -1.86,-4.03 c -0.1,0 -0.1,6.13 0,6.9 0.09,0.65 0.25,0.84 0.82,0.9 0.23,0.04 0.42,0.1 0.42,0.15 0,0.06 -0.62,0.1 -1.6,0.12 -1.38,0.03 -1.6,0.01 -1.6,-0.11 z m 12.9,0 c 0,-0.1 0.1,-0.15 0.37,-0.15 0.25,0 0.45,-0.07 0.63,-0.23 l 0.27,-0.22 0.02,-4.03 c 0.02,-2.82 0,-4.1 -0.08,-4.28 -0.1,-0.26 -0.65,-0.55 -1.03,-0.55 -0.1,0 -0.18,-0.04 -0.18,-0.1 0,-0.05 0.72,-0.09 1.97,-0.09 1.87,0 2.49,0.1 1.57,0.23 -0.5,0.07 -0.79,0.32 -0.86,0.73 -0.03,0.17 -0.05,2.06 -0.03,4.19 0.03,3.82 0.03,3.88 0.23,4.08 0.12,0.12 0.37,0.22 0.63,0.25 0.28,0.03 0.44,0.1 0.44,0.18 0,0.1 -0.37,0.12 -1.98,0.12 -1.7,0 -1.97,-0.02 -1.97,-0.14 z m 15.07,0.02 c 0.02,-0.07 0.24,-0.14 0.5,-0.17 0.58,-0.07 0.76,-0.3 0.84,-1.06 0.03,-0.32 0.05,-2.19 0.03,-4.14 L 41.06,102 40.8,101.78 a 1.6,1.6 0 0 0 -0.68,-0.29 c -0.94,-0.14 -0.32,-0.23 1.6,-0.23 a 8.9,8.9 0 0 1 2.02,0.1 c 0,0.05 -0.1,0.09 -0.24,0.09 -0.35,0 -0.86,0.24 -0.97,0.46 -0.11,0.2 -0.15,8.14 -0.05,8.42 0.09,0.22 0.54,0.43 0.93,0.43 0.23,0 0.33,0.04 0.33,0.14 0,0.12 -0.29,0.14 -2.03,0.14 -1.58,0 -2.02,-0.02 -1.99,-0.11 z m 14.75,-0.03 c 0,-0.1 0.1,-0.14 0.38,-0.14 0.3,0 0.44,-0.06 0.66,-0.27 l 0.27,-0.28 v -8.38 h -0.9 c -1.35,0 -1.78,0.25 -2.02,1.22 -0.07,0.26 -0.16,0.46 -0.21,0.44 -0.1,-0.03 -0.09,-2.05 0.02,-2.16 0.03,-0.04 1.78,-0.06 3.87,-0.05 l 3.8,0.03 0.03,1.1 c 0.03,1.09 -0.08,1.47 -0.21,0.76 -0.18,-0.97 -0.77,-1.34 -2.15,-1.34 h -0.92 l 0.03,4.24 0.03,4.24 0.26,0.22 c 0.18,0.16 0.38,0.23 0.64,0.23 0.26,0 0.37,0.04 0.37,0.14 0,0.12 -0.29,0.14 -1.98,0.14 -1.7,0 -1.97,-0.02 -1.97,-0.14 z m 6.67,0 c 0,-0.1 0.1,-0.14 0.39,-0.14 0.3,0 0.44,-0.06 0.66,-0.27 l 0.27,-0.28 v -4.08 c 0,-3.98 0,-4.1 -0.2,-4.34 -0.13,-0.18 -0.3,-0.26 -0.65,-0.3 -1.17,-0.16 -0.19,-0.23 3.14,-0.23 h 3.61 l 0.06,0.44 c 0.1,0.7 0.08,1.65 -0.04,1.61 -0.06,-0.02 -0.18,-0.26 -0.27,-0.55 -0.33,-0.95 -0.62,-1.06 -2.87,-1.01 l -1.41,0.03 v 3.85 h 1.31 c 1.78,0 2.06,-0.13 2.2,-1.05 0.04,-0.2 0.1,-0.35 0.16,-0.33 0.12,0.03 0.12,3.31 0,3.32 -0.06,0 -0.14,-0.19 -0.18,-0.42 a 1.27,1.27 0 0 0 -0.36,-0.68 c -0.28,-0.27 -0.28,-0.27 -1.73,-0.3 l -1.45,-0.03 v 1.97 c 0,1.74 0.02,2 0.16,2.18 0.17,0.2 0.22,0.2 1.82,0.17 1.58,-0.03 1.67,-0.04 2,-0.26 0.3,-0.2 0.7,-0.71 1.16,-1.47 0.06,-0.1 0.14,-0.15 0.18,-0.1 0.04,0.04 -0.1,0.59 -0.3,1.22 l -0.38,1.15 -3.64,0.02 c -3.2,0.02 -3.64,0.01 -3.64,-0.12 z m 8.72,0.08 c -0.12,-0.12 0.06,-0.22 0.42,-0.22 0.49,0 0.8,-0.3 0.88,-0.86 0.03,-0.22 0.05,-2.09 0.03,-4.15 l -0.03,-3.73 -0.24,-0.25 a 1.07,1.07 0 0 0 -0.69,-0.3 c -0.24,-0.02 -0.43,-0.09 -0.43,-0.14 0,-0.05 1.01,-0.07 2.66,-0.05 2.96,0.04 3.2,0.09 3.9,0.7 0.76,0.63 1.02,1.79 0.63,2.74 -0.2,0.53 -0.87,1.1 -1.56,1.35 -0.34,0.13 -0.52,0.24 -0.49,0.3 0.28,0.47 2.17,3.12 2.48,3.48 0.43,0.49 0.89,0.76 1.44,0.87 0.2,0.04 0.35,0.12 0.35,0.2 0,0.1 -0.25,0.12 -1.25,0.12 H 76.7 l -1.6,-2.3 -1.6,-2.3 h -0.99 l 0.01,1.9 c 0,1.35 0.04,1.95 0.12,2.05 0.18,0.24 0.5,0.37 0.86,0.37 0.23,0 0.33,0.04 0.33,0.14 0,0.12 -0.28,0.14 -1.96,0.14 -1.07,0 -1.98,-0.02 -2.02,-0.06 z m 4.6,-5.27 a 2.1,2.1 0 0 0 0.56,-3.38 c -0.5,-0.48 -1.13,-0.65 -1.93,-0.53 l -0.52,0.07 -0.02,2.06 -0.03,2.06 0.78,-0.04 c 0.54,-0.03 0.9,-0.1 1.16,-0.24 z m 5,5.27 c -0.12,-0.11 0.04,-0.22 0.34,-0.22 0.16,0 0.43,-0.08 0.6,-0.18 0.24,-0.15 0.31,-0.27 0.36,-0.59 0.11,-0.76 0,-7.91 -0.12,-8.13 -0.13,-0.23 -0.57,-0.41 -0.98,-0.41 -0.15,0 -0.27,-0.04 -0.27,-0.1 0,-0.06 1.29,-0.09 3.67,-0.09 h 3.67 v 0.68 c 0,0.38 0.03,0.84 0.06,1.04 0.05,0.28 0.03,0.35 -0.08,0.35 -0.1,0 -0.18,-0.15 -0.25,-0.4 -0.05,-0.23 -0.2,-0.53 -0.3,-0.68 -0.36,-0.45 -0.68,-0.52 -2.44,-0.52 h -1.6 l 0.02,1.95 0.03,1.95 h 1.38 c 1.64,0 1.81,-0.07 2.06,-0.87 0.07,-0.26 0.17,-0.51 0.2,-0.55 0.04,-0.03 0.07,0.73 0.07,1.7 0,0.98 -0.03,1.75 -0.07,1.71 a 2.36,2.36 0 0 1 -0.2,-0.55 c -0.25,-0.79 -0.42,-0.87 -2.08,-0.9 l -1.4,-0.03 v 2.02 c 0,1.71 0.01,2.05 0.14,2.17 0.12,0.12 0.41,0.15 1.7,0.15 2.01,0 2.2,-0.08 2.99,-1.34 0.19,-0.3 0.39,-0.54 0.44,-0.54 0.06,0 0.08,0.05 0.06,0.12 l -0.4,1.22 -0.37,1.1 H 83.1 c -1.97,0 -3.6,-0.02 -3.64,-0.06 z m 12.26,-0.08 c 0,-0.1 0.1,-0.14 0.38,-0.14 0.3,0 0.45,-0.06 0.66,-0.27 l 0.27,-0.28 v -4 c 0,-2.42 -0.03,-4.1 -0.09,-4.24 -0.1,-0.27 -0.58,-0.52 -0.98,-0.52 -0.14,0 -0.24,-0.04 -0.24,-0.1 0,-0.15 4.97,-0.11 5.85,0.05 0.99,0.17 1.68,0.5 2.26,1.1 0.61,0.62 0.96,1.26 1.2,2.2 0.62,2.42 -0.39,4.85 -2.4,5.79 -0.95,0.45 -1.76,0.55 -4.49,0.55 -2.1,0 -2.42,-0.02 -2.42,-0.14 z m 4.9,-0.43 c 1.9,-0.4 3,-2 3,-4.32 0,-2.9 -1.83,-4.72 -4.38,-4.34 -0.4,0.06 -0.76,0.13 -0.8,0.16 -0.05,0.03 -0.09,1.89 -0.09,4.2 0,3.45 0.02,4.14 0.13,4.18 0.53,0.2 1.5,0.25 2.15,0.12 z m 5.51,0.51 c -0.11,-0.11 0.04,-0.22 0.32,-0.22 0.47,0 0.82,-0.24 0.93,-0.63 0.12,-0.45 0.13,-7.45 0,-7.97 -0.1,-0.46 -0.28,-0.6 -0.86,-0.68 -1.16,-0.15 -0.16,-0.22 3.21,-0.22 h 3.67 v 0.82 c 0,0.46 0.03,0.92 0.06,1.04 0.04,0.15 0.02,0.21 -0.08,0.21 -0.09,0 -0.18,-0.15 -0.25,-0.4 -0.05,-0.23 -0.2,-0.53 -0.3,-0.68 -0.36,-0.45 -0.68,-0.52 -2.44,-0.52 h -1.6 l 0.03,1.95 0.02,1.95 0.85,0.03 c 1.88,0.07 2.36,-0.1 2.6,-0.93 0.06,-0.23 0.15,-0.45 0.19,-0.5 0.04,-0.05 0.08,0.7 0.08,1.69 0,1.83 -0.07,2.08 -0.31,1.13 -0.2,-0.76 -0.39,-0.85 -2.05,-0.88 l -1.4,-0.03 v 2.07 c 0,1.95 0,2.08 0.18,2.17 0.1,0.06 0.83,0.1 1.7,0.1 1.31,0 1.55,-0.02 1.87,-0.19 0.4,-0.2 0.83,-0.68 1.15,-1.28 0.12,-0.23 0.28,-0.41 0.35,-0.41 0.07,0 0.1,0.05 0.08,0.12 l -0.4,1.22 -0.37,1.1 h -3.58 c -1.98,0 -3.62,-0.02 -3.65,-0.06 z M 64.76,99.36 c -0.52,-0.63 -0.96,-1.18 -0.98,-1.23 -0.02,-0.04 0.3,-0.06 0.7,-0.05 l 0.73,0.03 0.36,1.18 0.36,1.2 c 0,0 -0.05,0.02 -0.12,0.02 -0.06,0 -0.54,-0.52 -1.05,-1.15 z"
                id="path227"
                inkscape:connector-curvature="0"/>
        <g
                transform="matrix(1.94208,0,0,-1.94208,-2142.25,320.73)"
                id="g50">
            <g
                    clip-path="url(#clipPath54)"
                    id="g52">
                <g
                        transform="translate(1113.97,133.97)"
                        id="g58">
                    <path
                            style="fill:#000000;fill-opacity:1;fill-rule:nonzero;stroke:none"
                            d="m 0,0 c -0.09,0 -0.16,-0.01 -0.26,-0.04 v -1.12 l 0.19,-0.02 c 0.35,0 0.58,0.23 0.58,0.59 C 0.51,-0.25 0.3,0 0,0 m 1.1,-2.83 c -0.16,0 -0.25,0.02 -0.34,0.09 -0.14,0.1 -0.29,0.37 -0.38,0.52 -0.14,0.27 -0.3,0.55 -0.46,0.8 l -0.06,-0.01 h -0.12 v -0.24 -0.37 c 0,-0.24 0.01,-0.34 0.04,-0.44 0.05,-0.12 0.12,-0.17 0.27,-0.19 v -0.12 h -1.13 v 0.12 c 0.1,0.01 0.16,0.03 0.2,0.1 0.05,0.05 0.08,0.13 0.1,0.24 l 0.01,0.66 v 0.76 c 0,0.55 -0.02,0.69 -0.05,0.82 -0.03,0.12 -0.12,0.17 -0.26,0.19 v 0.12 h 0.25 l 0.56,0.01 0.47,0.02 c 0.29,0 0.46,-0.05 0.6,-0.16 a 0.75,0.75 0 0 0 0.28,-0.6 c 0,-0.36 -0.23,-0.67 -0.63,-0.82 0.17,-0.22 0.3,-0.43 0.44,-0.68 0.14,-0.23 0.28,-0.43 0.39,-0.55 a 0.3,0.3 0 0 1 0.18,-0.1 V -2.79 A 1.44,1.44 0 0 0 1.1,-2.83"
                            id="path60"
                            inkscape:connector-curvature="0"/>
                </g>
                <g
                        transform="translate(1117.27,131.23)"
                        id="g62">
                    <path
                            style="fill:#000000;fill-opacity:1;fill-rule:nonzero;stroke:none"
                            d="m 0,0 c -0.03,-0.06 -0.07,-0.07 -0.26,-0.07 l -0.36,0.01 -0.5,0.02 c -0.18,0 -0.35,0 -0.52,-0.02 v 0.1 c 0.16,0.02 0.23,0.12 0.25,0.29 V 1.8 c 0,0.2 0,0.29 -0.03,0.37 -0.03,0.1 -0.1,0.14 -0.22,0.15 v 0.1 H 0.02 V 2.1 1.83 H -0.11 C -0.13,2.13 -0.25,2.2 -0.67,2.2 H -0.94 V 1.35 h 0.15 c 0.37,0 0.48,0.05 0.5,0.25 h 0.13 V 1.23 0.87 H -0.28 C -0.3,1.08 -0.39,1.13 -0.76,1.13 h -0.19 v -0.7 c 0,-0.16 0.03,-0.21 0.12,-0.24 A 1,1 0 0 1 -0.6,0.18 c 0.38,0 0.52,0.1 0.6,0.4 L 0.14,0.55 C 0.1,0.29 0.04,0.07 0,0 m -0.79,2.68 -0.16,0.1 0.35,0.55 0.4,-0.08 z"
                            id="path64"
                            inkscape:connector-curvature="0"/>
                </g>
                <g
                        transform="translate(1118.74,132.28)"
                        id="g66">
                    <path
                            style="fill:#000000;fill-opacity:1;fill-rule:nonzero;stroke:none"
                            d="m 0,0 h -0.1 l -0.08,0.2 c 0.34,0.02 0.52,0.19 0.52,0.47 0,0.3 -0.2,0.52 -0.46,0.52 -0.05,0 -0.08,0 -0.14,-0.02 v -1.35 c 0,-0.49 0,-0.57 0.03,-0.67 0.04,-0.1 0.1,-0.14 0.22,-0.15 V -1.1 H -0.95 V -1 c 0.15,0.01 0.23,0.1 0.24,0.27 l 0.01,0.55 v 0.94 c 0,0.2 -0.01,0.28 -0.04,0.36 -0.03,0.1 -0.1,0.14 -0.21,0.16 v 0.1 h 0.42 L 0,1.4 C 0.5,1.4 0.8,1.14 0.8,0.7 0.81,0.3 0.47,0 0,0"
                            id="path68"
                            inkscape:connector-curvature="0"/>
                </g>
                <g
                        transform="translate(1121.96,133.48)"
                        id="g70">
                    <path
                            style="fill:#000000;fill-opacity:1;fill-rule:nonzero;stroke:none"
                            d="M 0,0 C -0.04,-0.06 -0.06,-0.13 -0.06,-0.28 L -0.08,-0.8 V -1.4 A 0.95,0.95 0 0 0 -0.21,-1.97 C -0.37,-2.22 -0.64,-2.35 -1,-2.35 a 0.9,0.9 0 0 0 -0.55,0.16 c -0.25,0.16 -0.34,0.38 -0.34,0.78 v 0.71 c 0,0.2 0.02,0.39 -0.02,0.58 -0.02,0.13 -0.08,0.19 -0.23,0.2 v 0.1 h 0.94 v -0.1 c -0.12,-0.01 -0.17,-0.04 -0.2,-0.1 -0.04,-0.06 -0.05,-0.14 -0.05,-0.3 l -0.01,-0.7 c 0,-0.65 0.01,-0.77 0.12,-0.9 a 0.5,0.5 0 0 1 0.4,-0.18 c 0.24,0 0.47,0.13 0.54,0.38 0.04,0.16 0.05,0.27 0.05,0.7 v 0.36 c 0,0.43 -0.01,0.56 -0.05,0.63 -0.04,0.06 -0.1,0.1 -0.18,0.11 v 0.1 H 0.16 V 0.08 C 0.09,0.07 0.04,0.05 0,0"
                            id="path72"
                            inkscape:connector-curvature="0"/>
                </g>
                <g
                        transform="translate(1123.37,132.43)"
                        id="g74">
                    <path
                            style="fill:#000000;fill-opacity:1;fill-rule:nonzero;stroke:none"
                            d="m 0,0 -0.21,-0.01 v -0.51 c 0,-0.21 0,-0.33 0.02,-0.4 0.03,-0.1 0.12,-0.14 0.27,-0.14 0.3,0 0.46,0.18 0.46,0.5 C 0.54,-0.23 0.34,0 0,0 m -0.01,1.04 h -0.2 V 0.21 L -0.07,0.2 c 0.36,0 0.56,0.16 0.56,0.43 0,0.26 -0.19,0.41 -0.5,0.41 M 0.76,-1.08 C 0.6,-1.22 0.41,-1.26 0.05,-1.26 l -0.58,0.02 -0.32,-0.01 H -0.9 v 0.1 c 0.16,0.01 0.23,0.1 0.24,0.28 0.01,0.1 0.02,0.18 0.02,0.55 v 0.7 c 0,0.35 0,0.5 -0.04,0.6 -0.04,0.1 -0.1,0.14 -0.22,0.15 v 0.1 h 0.48 L 0.3,1.24 C 0.62,1.24 0.92,1.08 0.92,0.69 0.93,0.4 0.76,0.2 0.43,0.12 0.8,0.04 1,-0.2 1,-0.56 1,-0.78 0.92,-0.96 0.76,-1.08"
                            id="path76"
                            inkscape:connector-curvature="0"/>
                </g>
                <g
                        transform="translate(1126.36,131.22)"
                        id="g78">
                    <path
                            style="fill:#000000;fill-opacity:1;fill-rule:nonzero;stroke:none"
                            d="m 0,0 c -0.03,-0.05 -0.07,-0.06 -0.25,-0.06 h -0.27 a 17.02,17.02 0 0 1 -1.07,0 v 0.11 c 0.09,0.01 0.13,0.03 0.17,0.08 0.06,0.08 0.08,0.17 0.08,0.45 v 0.93 c 0,0.5 0,0.57 -0.03,0.67 -0.03,0.1 -0.1,0.14 -0.22,0.16 v 0.1 h 0.98 v -0.1 c -0.18,0 -0.26,-0.1 -0.28,-0.28 L -0.9,1.5 V 0.88 c 0,-0.52 0,-0.58 0.05,-0.63 0.04,-0.05 0.11,-0.06 0.25,-0.06 0.2,0 0.3,0.02 0.4,0.07 0.1,0.06 0.17,0.17 0.2,0.33 L 0.14,0.55 C 0.11,0.33 0.04,0.06 0,0"
                            id="path80"
                            inkscape:connector-curvature="0"/>
                </g>
                <g
                        transform="translate(1127.6,131.17)"
                        id="g82">
                    <path
                            style="fill:#000000;fill-opacity:1;fill-rule:nonzero;stroke:none"
                            d="m 0,0 h -0.86 v 0.1 c 0.17,0.02 0.23,0.1 0.24,0.28 0.02,0.11 0.02,0.18 0.02,0.55 v 0.93 c 0,0.2 -0.01,0.29 -0.04,0.37 -0.03,0.1 -0.1,0.14 -0.22,0.16 v 0.1 H 0.1 V 2.39 C -0.06,2.37 -0.13,2.27 -0.15,2.1 L -0.16,1.55 V 0.93 c 0,-0.5 0,-0.57 0.04,-0.67 C -0.1,0.16 -0.03,0.1 0.08,0.1 V 0 Z"
                            id="path84"
                            inkscape:connector-curvature="0"/>
                </g>
                <g
                        transform="translate(1129.23,133.45)"
                        id="g86">
                    <path
                            style="fill:#000000;fill-opacity:1;fill-rule:nonzero;stroke:none"
                            d="m 0,0 c -0.43,0 -0.74,-0.38 -0.74,-0.92 0,-0.65 0.36,-1.16 0.83,-1.16 0.43,0 0.74,0.4 0.74,0.93 C 0.83,-0.5 0.47,0 0,0 m 1.67,-2.96 c -0.28,0 -0.57,0.1 -0.85,0.26 -0.16,0.1 -0.38,0.25 -0.54,0.4 A 1.34,1.34 0 0 0 0,-2.33 c -0.72,0 -1.2,0.5 -1.2,1.24 0,0.79 0.53,1.35 1.28,1.35 0.73,0 1.21,-0.5 1.21,-1.24 0,-0.53 -0.25,-1 -0.66,-1.21 L 1,-2.41 c 0.37,-0.23 0.61,-0.33 0.84,-0.33 0.15,0 0.27,0.03 0.41,0.1 L 2.3,-2.76 C 2.13,-2.89 1.9,-2.96 1.67,-2.96"
                            id="path88"
                            inkscape:connector-curvature="0"/>
                </g>
                <g
                        transform="translate(1132.96,133.48)"
                        id="g90">
                    <path
                            style="fill:#000000;fill-opacity:1;fill-rule:nonzero;stroke:none"
                            d="M 0,0 C -0.04,-0.06 -0.06,-0.13 -0.06,-0.28 L -0.07,-0.8 V -1.4 A 0.95,0.95 0 0 0 -0.21,-1.97 C -0.37,-2.22 -0.64,-2.35 -1,-2.35 a 0.9,0.9 0 0 0 -0.55,0.16 c -0.25,0.16 -0.34,0.38 -0.34,0.78 v 0.71 c 0,0.2 0.02,0.39 -0.02,0.58 -0.02,0.13 -0.08,0.19 -0.23,0.2 v 0.1 h 0.94 v -0.1 c -0.12,-0.01 -0.17,-0.04 -0.2,-0.1 -0.03,-0.06 -0.05,-0.14 -0.05,-0.3 l -0.01,-0.7 c 0,-0.65 0.01,-0.77 0.12,-0.9 0.09,-0.11 0.23,-0.18 0.4,-0.18 0.24,0 0.47,0.13 0.54,0.38 0.04,0.16 0.05,0.27 0.05,0.7 v 0.36 c 0,0.43 -0.01,0.56 -0.05,0.63 -0.04,0.06 -0.1,0.1 -0.18,0.11 v 0.1 H 0.16 V 0.08 C 0.09,0.07 0.04,0.05 0,0"
                            id="path92"
                            inkscape:connector-curvature="0"/>
                </g>
                <g
                        transform="translate(1135.12,131.23)"
                        id="g94">
                    <path
                            style="fill:#000000;fill-opacity:1;fill-rule:nonzero;stroke:none"
                            d="m 0,0 c -0.03,-0.06 -0.07,-0.07 -0.26,-0.07 l -0.36,0.01 -0.5,0.02 c -0.18,0 -0.35,0 -0.52,-0.02 v 0.1 c 0.16,0.02 0.23,0.12 0.24,0.29 0.02,0.1 0.02,0.23 0.02,0.42 v 1.06 c 0,0.2 -0.02,0.29 -0.04,0.37 -0.04,0.1 -0.1,0.14 -0.22,0.15 v 0.1 H 0.02 V 2.11 1.84 h -0.13 c -0.03,0.3 -0.14,0.37 -0.56,0.37 H -0.94 V 1.36 h 0.15 c 0.37,0 0.48,0.05 0.5,0.25 h 0.13 V 1.24 0.88 h -0.13 c 0,0.21 -0.1,0.26 -0.47,0.26 h -0.19 v -0.7 c 0,-0.16 0.03,-0.21 0.12,-0.24 A 1,1 0 0 1 -0.6,0.18 c 0.38,0 0.51,0.1 0.6,0.4 L 0.14,0.55 C 0.1,0.29 0.04,0.07 0,0"
                            id="path96"
                            inkscape:connector-curvature="0"/>
                </g>
                <g
                        transform="translate(1138.4,133.46)"
                        id="g98">
                    <path
                            style="fill:#000000;fill-opacity:1;fill-rule:nonzero;stroke:none"
                            d="m 0,0 c 0,0.33 -0.18,0.45 -0.67,0.45 l -0.3,-0.01 v -1.02 l 0.22,-0.01 c 0.4,0 0.52,0.07 0.54,0.31 h 0.16 l -0.01,-0.38 v -0.5 H -0.2 c -0.03,0.26 -0.13,0.32 -0.58,0.32 h -0.18 v -0.51 -0.33 c 0,-0.25 0.03,-0.46 0.3,-0.48 v -0.13 h -0.1 l -0.46,0.01 H -1.8 v 0.12 c 0.2,0.02 0.28,0.13 0.3,0.33 v 1.8 c 0,0.24 0,0.35 -0.04,0.44 -0.04,0.12 -0.11,0.17 -0.26,0.2 V 0.73 H 0.16 V 0.3 0 Z"
                            id="path100"
                            inkscape:connector-curvature="0"/>
                </g>
                <g
                        transform="translate(1139.85,133.48)"
                        id="g102">
                    <path
                            style="fill:#000000;fill-opacity:1;fill-rule:nonzero;stroke:none"
                            d="m 0,0 a 0.86,0.86 0 0 1 -0.21,-0.03 v -0.93 l 0.15,-0.01 c 0.29,0 0.48,0.19 0.48,0.48 C 0.42,-0.2 0.26,0 0,0 m 0.91,-2.34 c -0.13,0 -0.2,0.02 -0.28,0.07 -0.12,0.08 -0.24,0.3 -0.31,0.43 l -0.38,0.66 h -0.16 v -0.2 -0.3 c 0.01,-0.2 0.02,-0.29 0.05,-0.37 0.03,-0.1 0.1,-0.14 0.2,-0.15 v -0.1 h -0.92 v 0.1 c 0.08,0 0.13,0.02 0.17,0.07 0.04,0.05 0.06,0.12 0.07,0.2 l 0.01,0.55 v 0.63 c 0,0.46 -0.01,0.57 -0.03,0.67 -0.03,0.1 -0.1,0.14 -0.22,0.16 v 0.1 h 0.2 l 0.47,0.01 0.38,0.01 c 0.24,0 0.39,-0.04 0.5,-0.12 0.15,-0.1 0.23,-0.3 0.23,-0.5 C 0.9,-0.72 0.7,-0.97 0.38,-1.1 0.51,-1.28 0.62,-1.46 0.74,-1.66 0.85,-1.86 0.97,-2.02 1.06,-2.11 a 0.25,0.25 0 0 1 0.14,-0.1 v -0.1 C 1.11,-2.33 1.02,-2.34 0.91,-2.34"
                            id="path104"
                            inkscape:connector-curvature="0"/>
                </g>
                <g
                        transform="translate(1142.17,133)"
                        id="g106">
                    <path
                            style="fill:#000000;fill-opacity:1;fill-rule:nonzero;stroke:none"
                            d="M 0,0 C -0.1,-0.25 -0.22,-0.58 -0.27,-0.77 H 0.25 Z M 1.15,-1.83 H 0.3 v 0.1 c 0.12,0 0.18,0.07 0.18,0.18 0,0.03 0,0.09 -0.04,0.2 L 0.32,-1 h -0.67 l -0.08,-0.22 c -0.05,-0.17 -0.08,-0.3 -0.08,-0.35 0,-0.11 0.05,-0.16 0.16,-0.17 v -0.1 h -0.7 v 0.1 c 0.05,0 0.07,0.02 0.1,0.05 0.08,0.07 0.14,0.2 0.25,0.48 l 0.34,0.9 c 0.09,0.25 0.23,0.64 0.32,0.96 H 0.2 C 0.23,0.54 0.3,0.36 0.36,0.22 l 0.5,-1.34 C 0.94,-1.35 1,-1.49 1.05,-1.57 1.1,-1.67 1.15,-1.71 1.23,-1.73 v -0.1 z"
                            id="path108"
                            inkscape:connector-curvature="0"/>
                </g>
                <g
                        transform="translate(1145.83,133.45)"
                        id="g110">
                    <path
                            style="fill:#000000;fill-opacity:1;fill-rule:nonzero;stroke:none"
                            d="m 0,0 c -0.04,-0.07 -0.04,-0.13 -0.05,-0.33 l -0.02,-1.1 v -0.58 l 0.01,-0.27 H -0.3 L -1,-1.34 -1.72,-0.4 v -0.52 -0.84 c 0.01,-0.15 0.03,-0.23 0.06,-0.3 0.04,-0.08 0.09,-0.1 0.2,-0.11 v -0.1 h -0.76 v 0.1 c 0.23,0 0.24,0.21 0.25,0.4 v 1.33 c 0,0.3 -0.01,0.38 -0.06,0.46 -0.04,0.06 -0.09,0.08 -0.2,0.1 v 0.1 L -1.9,0.2 h 0.3 c 0.04,-0.08 0.11,-0.15 0.35,-0.46 0.35,-0.45 0.66,-0.83 0.95,-1.22 v 0.82 c 0,0.37 0,0.47 -0.02,0.56 -0.02,0.12 -0.09,0.18 -0.22,0.2 V 0.2 H 0.2 V 0.1 C 0.1,0.11 0.05,0.1 0,0"
                            id="path112"
                            inkscape:connector-curvature="0"/>
                </g>
                <g
                        transform="translate(1148.3,131.26)"
                        id="g114">
                    <path
                            style="fill:#000000;fill-opacity:1;fill-rule:nonzero;stroke:none"
                            d="m 0,0 c -0.23,-0.1 -0.43,-0.14 -0.71,-0.14 l -0.03,-0.14 h 0.06 c 0.14,0 0.23,-0.1 0.23,-0.23 0,-0.2 -0.15,-0.34 -0.4,-0.34 a 0.49,0.49 0 0 0 -0.2,0.05 l 0.04,0.14 a 0.33,0.33 0 0 1 0.13,-0.03 c 0.1,0 0.17,0.06 0.17,0.15 0,0.07 -0.04,0.12 -0.1,0.12 a 0.12,0.12 0 0 1 -0.07,-0.03 l -0.08,0.02 0.07,0.3 c -0.3,0.03 -0.53,0.14 -0.72,0.35 -0.22,0.24 -0.34,0.56 -0.34,0.93 0,0.81 0.49,1.3 1.3,1.3 0.24,0 0.48,-0.04 0.69,-0.11 L 0.03,2.09 V 1.8 H -0.1 c -0.06,0.27 -0.26,0.4 -0.58,0.4 -0.5,0 -0.8,-0.34 -0.8,-0.93 0,-0.67 0.35,-1.16 0.84,-1.16 0.3,0 0.5,0.16 0.58,0.46 L 0.08,0.54 A 3.96,3.96 0 0 1 0,0"
                            id="path116"
                            inkscape:connector-curvature="0"/>
                </g>
                <g
                        transform="translate(1149.6,133)"
                        id="g118">
                    <path
                            style="fill:#000000;fill-opacity:1;fill-rule:nonzero;stroke:none"
                            d="M 0,0 C -0.1,-0.25 -0.22,-0.58 -0.27,-0.77 H 0.25 Z M 1.15,-1.83 H 0.3 v 0.1 c 0.12,0 0.18,0.07 0.18,0.18 0,0.03 0,0.09 -0.04,0.2 L 0.33,-1 h -0.69 l -0.07,-0.22 c -0.05,-0.17 -0.08,-0.3 -0.08,-0.35 0,-0.11 0.05,-0.16 0.16,-0.17 v -0.1 h -0.7 v 0.1 c 0.05,0 0.07,0.02 0.1,0.05 0.08,0.07 0.14,0.2 0.25,0.48 l 0.34,0.9 c 0.09,0.25 0.23,0.64 0.32,0.96 H 0.2 C 0.23,0.54 0.3,0.36 0.36,0.22 l 0.5,-1.34 C 0.94,-1.35 1,-1.49 1.05,-1.57 1.1,-1.67 1.15,-1.71 1.23,-1.73 v -0.1 z"
                            id="path120"
                            inkscape:connector-curvature="0"/>
                </g>
                <g
                        transform="translate(1151.9,131.17)"
                        id="g122">
                    <path
                            style="fill:#000000;fill-opacity:1;fill-rule:nonzero;stroke:none"
                            d="m 0,0 h -0.86 v 0.1 c 0.17,0.02 0.23,0.1 0.24,0.28 a 5,5 0 0 1 0.02,0.55 v 0.93 c 0,0.2 -0.01,0.29 -0.04,0.37 -0.03,0.1 -0.1,0.14 -0.22,0.16 v 0.1 H 0.09 V 2.39 C -0.07,2.37 -0.14,2.27 -0.16,2.1 L -0.17,1.55 V 0.93 c 0,-0.5 0,-0.57 0.04,-0.67 C -0.1,0.16 -0.03,0.1 0.08,0.1 V 0 Z"
                            id="path124"
                            inkscape:connector-curvature="0"/>
                </g>
                <g
                        transform="translate(1153,131.13)"
                        id="g126">
                    <path
                            style="fill:#000000;fill-opacity:1;fill-rule:nonzero;stroke:none"
                            d="m 0,0 c -0.2,0 -0.35,0.03 -0.6,0.13 0,0.14 -0.03,0.36 -0.06,0.54 l 0.14,0.02 c 0.08,-0.3 0.27,-0.46 0.54,-0.46 0.25,0 0.42,0.14 0.42,0.35 0,0.17 -0.11,0.28 -0.27,0.38 L -0.2,1.21 c -0.25,0.18 -0.4,0.36 -0.4,0.69 0,0.41 0.3,0.68 0.77,0.68 0.22,0 0.4,-0.04 0.57,-0.13 V 2.2 1.93 H 0.61 C 0.56,2.2 0.41,2.34 0.16,2.34 c -0.22,0 -0.38,-0.14 -0.38,-0.35 0,-0.18 0.12,-0.3 0.3,-0.42 l 0.3,-0.2 C 0.67,1.17 0.83,0.97 0.83,0.67 0.83,0.29 0.5,0 0,0"
                            id="path128"
                            inkscape:connector-curvature="0"/>
                </g>
                <g
                        transform="translate(1155.85,131.23)"
                        id="g130">
                    <path
                            style="fill:#000000;fill-opacity:1;fill-rule:nonzero;stroke:none"
                            d="m 0,0 c -0.03,-0.06 -0.07,-0.07 -0.26,-0.07 l -0.36,0.01 -0.5,0.02 c -0.18,0 -0.35,0 -0.52,-0.02 v 0.1 c 0.16,0.02 0.23,0.12 0.24,0.29 0.02,0.1 0.02,0.23 0.02,0.42 v 1.06 c 0,0.2 -0.02,0.29 -0.04,0.37 -0.04,0.1 -0.1,0.14 -0.22,0.15 v 0.1 H 0.02 V 2.11 1.84 h -0.13 c -0.02,0.3 -0.14,0.37 -0.56,0.37 H -0.94 V 1.36 h 0.15 c 0.37,0 0.48,0.05 0.5,0.25 h 0.13 V 1.24 0.88 h -0.13 c 0,0.21 -0.1,0.26 -0.47,0.26 h -0.19 v -0.7 c 0,-0.16 0.03,-0.21 0.11,-0.24 l 0.25,-0.02 c 0.38,0 0.51,0.1 0.6,0.4 L 0.14,0.55 C 0.1,0.29 0.04,0.07 0,0"
                            id="path132"
                            inkscape:connector-curvature="0"/>
                </g>
                <g
                        transform="translate(1114.1,137.57)"
                        id="g134">
                    <path
                            style="fill:#000000;fill-opacity:1;fill-rule:nonzero;stroke:none"
                            d="m 0,0 c -0.03,-0.04 -0.08,-0.06 -0.2,-0.06 l -0.5,0.02 h -0.81 l 0.01,0.07 c 0.1,0.01 0.17,0.04 0.21,0.11 a 1,1 0 0 1 0.14,0.38 l 0.14,0.7 0.05,0.28 c 0.06,0.3 0.08,0.46 0.08,0.56 0,0.16 -0.06,0.22 -0.2,0.24 l 0.01,0.08 H -0.2 V 2.3 C -0.31,2.3 -0.37,2.26 -0.42,2.19 -0.51,2.08 -0.55,1.92 -0.68,1.22 L -0.74,0.97 -0.82,0.44 V 0.32 c 0,-0.14 0.06,-0.18 0.28,-0.18 0.39,0 0.53,0.08 0.66,0.38 L 0.22,0.48 A 2.57,2.57 0 0 0 0,0"
                            id="path136"
                            inkscape:connector-curvature="0"/>
                </g>
                <g
                        transform="translate(1114.75,137.48)"
                        id="g138">
                    <path
                            style="fill:#000000;fill-opacity:1;fill-rule:nonzero;stroke:none"
                            d="M 0,0 C -0.07,0 -0.11,0.04 -0.11,0.1 A 45.1,45.1 0 0 0 0.13,1.23 C 0.13,1.29 0.1,1.31 0.07,1.31 L -0.07,1.28 -0.09,1.27 -0.1,1.37 C 0.09,1.45 0.27,1.5 0.36,1.5 0.42,1.5 0.44,1.48 0.44,1.43 0.44,1.39 0.42,1.27 0.36,1.02 L 0.3,0.8 C 0.22,0.45 0.2,0.33 0.2,0.27 0.2,0.21 0.23,0.18 0.28,0.18 L 0.47,0.23 V 0.13 A 1.56,1.56 0 0 0 0,0 m 0.38,1.86 c -0.11,0 -0.18,0.07 -0.18,0.17 0,0.14 0.09,0.23 0.21,0.23 0.1,0 0.17,-0.07 0.17,-0.18 0,-0.13 -0.08,-0.22 -0.2,-0.22"
                            id="path140"
                            inkscape:connector-curvature="0"/>
                </g>
                <g
                        transform="translate(1116.64,138.82)"
                        id="g142">
                    <path
                            style="fill:#000000;fill-opacity:1;fill-rule:nonzero;stroke:none"
                            d="m 0,0 a 0.49,0.49 0 0 1 -0.23,-0.08 0.63,0.63 0 0 1 -0.21,-0.17 1.3,1.3 0 0 1 -0.14,-0.41 2.73,2.73 0 0 1 -0.07,-0.42 c 0,-0.07 0.07,-0.11 0.21,-0.11 0.14,0 0.26,0.06 0.35,0.2 0.14,0.2 0.24,0.54 0.24,0.77 C 0.15,-0.08 0.1,0 0,0 m 0,-1.17 c -0.13,-0.12 -0.29,-0.17 -0.53,-0.17 -0.27,0 -0.43,0.05 -0.43,0.12 l 0.03,0.22 0.18,0.82 a 43.74,43.74 0 0 1 0.22,1.1 c 0,0.04 -0.02,0.06 -0.06,0.06 A 0.7,0.7 0 0 1 -0.74,0.95 v 0.1 l 0.03,0.02 c 0.2,0.06 0.35,0.1 0.42,0.1 0.04,0 0.07,-0.02 0.07,-0.06 L -0.3,0.7 -0.4,0.23 a 6.2,6.2 0 0 1 -0.05,-0.27 c 0.21,0.13 0.4,0.2 0.57,0.2 0.21,0 0.32,-0.12 0.32,-0.34 0,-0.35 -0.18,-0.76 -0.44,-0.99"
                            id="path144"
                            inkscape:connector-curvature="0"/>
                </g>
                <g
                        transform="translate(1118.18,138.83)"
                        id="g146">
                    <path
                            style="fill:#000000;fill-opacity:1;fill-rule:nonzero;stroke:none"
                            d="m 0,0 c -0.17,0 -0.34,-0.24 -0.43,-0.6 h 0.04 c 0.32,0 0.56,0.18 0.56,0.42 C 0.17,-0.08 0.09,0 0,0 m -0.35,-0.73 h -0.1 A 1.14,1.14 0 0 1 -0.47,-0.9 c 0,-0.18 0.06,-0.28 0.18,-0.28 0.11,0 0.25,0.06 0.46,0.2 L 0.2,-1.11 c -0.25,-0.17 -0.44,-0.24 -0.62,-0.24 -0.21,0 -0.33,0.13 -0.33,0.38 0,0.6 0.39,1.11 0.83,1.11 0.22,0 0.34,-0.1 0.34,-0.28 0,-0.34 -0.33,-0.59 -0.77,-0.59"
                            id="path148"
                            inkscape:connector-curvature="0"/>
                </g>
                <g
                        transform="translate(1119.99,138.5)"
                        id="g150">
                    <path
                            style="fill:#000000;fill-opacity:1;fill-rule:nonzero;stroke:none"
                            d="m 0,0 -0.11,0.01 v 0.14 c 0,0.07 -0.05,0.12 -0.14,0.12 -0.05,0 -0.1,-0.04 -0.14,-0.1 -0.13,-0.15 -0.18,-0.4 -0.26,-0.8 l -0.07,-0.35 -0.3,-0.03 0.1,0.37 0.07,0.34 c 0.05,0.23 0.07,0.37 0.07,0.45 0,0.09 -0.02,0.13 -0.06,0.13 L -0.93,0.26 -1,0.23 -1.01,0.33 c 0.17,0.08 0.36,0.14 0.45,0.14 0.03,0 0.05,-0.02 0.06,-0.05 V 0.26 c 0.15,0.14 0.29,0.21 0.39,0.21 0.06,0 0.15,-0.03 0.23,-0.1 C 0.07,0.24 0.03,0.13 0,0"
                            id="path152"
                            inkscape:connector-curvature="0"/>
                </g>
                <g
                        transform="translate(1121.15,138.75)"
                        id="g154">
                    <path
                            style="fill:#000000;fill-opacity:1;fill-rule:nonzero;stroke:none"
                            d="m 0,0 h -0.29 l -0.14,-0.74 c -0.04,-0.2 -0.04,-0.25 -0.04,-0.26 0,-0.06 0.02,-0.09 0.07,-0.09 l 0.16,0.05 h 0.03 l 0.01,-0.1 a 1.43,1.43 0 0 0 -0.46,-0.13 c -0.08,0 -0.12,0.04 -0.12,0.1 0,0.07 0.01,0.16 0.04,0.27 l 0.08,0.38 0.11,0.54 h -0.18 l 0.02,0.11 c 0.23,0.04 0.32,0.24 0.38,0.45 l 0.17,0.04 -0.1,-0.43 h 0.3 z"
                            id="path156"
                            inkscape:connector-curvature="0"/>
                </g>
                <g
                        transform="translate(1122.18,138.83)"
                        id="g158">
                    <path
                            style="fill:#000000;fill-opacity:1;fill-rule:nonzero;stroke:none"
                            d="m 0,0 c -0.17,0 -0.34,-0.24 -0.43,-0.6 h 0.04 c 0.32,0 0.56,0.18 0.56,0.42 C 0.17,-0.08 0.09,0 0,0 m -0.35,-0.73 h -0.1 A 0.94,0.94 0 0 1 -0.47,-0.9 c 0,-0.18 0.06,-0.28 0.18,-0.28 0.11,0 0.25,0.06 0.46,0.2 L 0.2,-1.11 c -0.25,-0.17 -0.44,-0.24 -0.62,-0.24 -0.21,0 -0.33,0.13 -0.33,0.38 0,0.6 0.39,1.11 0.83,1.11 0.22,0 0.34,-0.1 0.34,-0.28 0,-0.34 -0.33,-0.59 -0.77,-0.59 m 0.38,1.1 -0.11,0.1 0.42,0.5 0.3,-0.08 z"
                            id="path160"
                            inkscape:connector-curvature="0"/>
                </g>
                <g
                        transform="translate(1128.78,139.42)"
                        id="g162">
                    <path
                            style="fill:#000000;fill-opacity:1;fill-rule:nonzero;stroke:none"
                            d="m 0,0 h -0.1 v 0.08 c 0,0.2 -0.12,0.27 -0.46,0.27 L -0.9,0.34 -1.08,-0.55 h 0.13 c 0.22,0 0.31,0 0.4,0.02 0.12,0.02 0.2,0.1 0.23,0.25 h 0.1 l -0.14,-0.7 h -0.09 v 0.06 c 0,0.15 -0.08,0.2 -0.37,0.2 h -0.29 l -0.08,-0.43 -0.05,-0.4 c 0,-0.13 0.06,-0.16 0.3,-0.16 0.43,0 0.56,0.07 0.7,0.39 l 0.08,-0.04 a 2.07,2.07 0 0 0 -0.2,-0.5 C -0.4,-1.9 -0.45,-1.9 -0.6,-1.9 l -0.36,0.01 h -0.96 v 0.08 c 0.11,0.01 0.17,0.04 0.22,0.11 0.06,0.08 0.1,0.18 0.14,0.38 l 0.14,0.7 0.05,0.28 c 0.06,0.29 0.08,0.47 0.08,0.56 0,0.16 -0.06,0.22 -0.2,0.24 l 0.01,0.08 H 0.1 A 6.16,6.16 0 0 1 0,0 m -0.65,0.78 -0.12,0.09 0.43,0.5 0.3,-0.08 z"
                            id="path164"
                            inkscape:connector-curvature="0"/>
                </g>
                <g
                        transform="translate(1129.87,137.36)"
                        id="g166">
                    <path
                            style="fill:#000000;fill-opacity:1;fill-rule:nonzero;stroke:none"
                            d="m 0,0 a 5,5 0 0 1 -0.4,0.14 c -0.24,-0.06 -0.4,-0.24 -0.4,-0.46 0,-0.2 0.15,-0.32 0.4,-0.32 0.3,0 0.58,0.21 0.58,0.44 0,0.1 -0.05,0.15 -0.18,0.2 m -0.05,1.47 c -0.19,0 -0.34,-0.2 -0.34,-0.45 0,-0.17 0.1,-0.29 0.23,-0.29 0.18,0 0.33,0.2 0.33,0.45 0,0.18 -0.09,0.3 -0.22,0.3 M 0.61,1.39 H 0.37 A 0.42,0.42 0 0 0 0.43,1.18 0.6,0.6 0 0 0 -0.18,0.58 C -0.25,0.59 -0.3,0.6 -0.37,0.63 -0.45,0.56 -0.48,0.54 -0.48,0.5 c 0,-0.04 0.04,-0.05 0.19,-0.1 L -0.02,0.3 C 0.26,0.21 0.4,0.12 0.4,-0.09 c 0,-0.38 -0.36,-0.68 -0.82,-0.68 -0.38,0 -0.6,0.18 -0.6,0.5 0,0.28 0.16,0.41 0.45,0.49 -0.18,0.06 -0.21,0.1 -0.21,0.16 0,0.07 0.1,0.17 0.3,0.3 A 0.39,0.39 0 0 0 -0.65,1 c 0,0.34 0.27,0.6 0.6,0.6 A 0.6,0.6 0 0 0 0.19,1.56 h 0.45 z"
                            id="path168"
                            inkscape:connector-curvature="0"/>
                </g>
                <g
                        transform="translate(1131.62,138.82)"
                        id="g170">
                    <path
                            style="fill:#000000;fill-opacity:1;fill-rule:nonzero;stroke:none"
                            d="m 0,0 c -0.14,0 -0.28,-0.1 -0.4,-0.31 a 1.6,1.6 0 0 1 -0.22,-0.71 c 0,-0.12 0.06,-0.18 0.14,-0.18 a 0.8,0.8 0 0 1 0.44,0.21 c 0.05,0.06 0.08,0.13 0.11,0.27 0.06,0.22 0.1,0.43 0.14,0.67 A 0.52,0.52 0 0 1 0,0 m 0.16,-1.35 c -0.06,0 -0.08,0.04 -0.12,0.22 a 1.23,1.23 0 0 0 -0.62,-0.22 c -0.2,0 -0.33,0.11 -0.33,0.31 0,0.2 0.1,0.47 0.23,0.7 0.19,0.3 0.42,0.5 0.77,0.5 0.16,0 0.3,-0.04 0.44,-0.08 L 0.52,0.02 A 5.2,5.2 0 0 1 0.3,-1 c 0,-0.1 0.02,-0.15 0.07,-0.15 l 0.18,0.05 0.01,-0.11 a 1.73,1.73 0 0 0 -0.4,-0.13"
                            id="path172"
                            inkscape:connector-curvature="0"/>
                </g>
                <g
                        transform="translate(1133.3,139.62)"
                        id="g174">
                    <path
                            style="fill:#000000;fill-opacity:1;fill-rule:nonzero;stroke:none"
                            d="m 0,0 -0.34,-1.53 a 2.08,2.08 0 0 1 -0.05,-0.34 c 0,-0.05 0.03,-0.08 0.08,-0.08 l 0.19,0.05 V -2 A 1.73,1.73 0 0 0 -0.6,-2.14 c -0.06,0 -0.1,0.04 -0.1,0.11 0,0.05 0,0.12 0.06,0.35 l 0.32,1.45 0.06,0.35 c 0,0.04 -0.02,0.06 -0.06,0.06 A 0.51,0.51 0 0 1 -0.47,0.15 v 0.1 c 0.17,0.07 0.36,0.12 0.46,0.12 0.05,0 0.07,-0.02 0.07,-0.06 L 0,0"
                            id="path176"
                            inkscape:connector-curvature="0"/>
                </g>
                <g
                        transform="translate(1133.78,137.48)"
                        id="g178">
                    <path
                            style="fill:#000000;fill-opacity:1;fill-rule:nonzero;stroke:none"
                            d="M 0,0 C -0.07,0 -0.11,0.04 -0.11,0.1 A 32.56,32.56 0 0 0 0.13,1.23 C 0.13,1.29 0.1,1.31 0.07,1.31 L -0.07,1.28 -0.09,1.27 -0.1,1.37 C 0.08,1.45 0.27,1.5 0.36,1.5 0.42,1.5 0.44,1.48 0.44,1.43 0.44,1.39 0.42,1.27 0.36,1.02 L 0.3,0.8 C 0.22,0.45 0.2,0.33 0.2,0.27 0.2,0.21 0.23,0.18 0.28,0.18 L 0.47,0.23 V 0.13 A 1.57,1.57 0 0 0 0,0 m 0.38,1.86 c -0.11,0 -0.18,0.07 -0.18,0.17 0,0.14 0.09,0.23 0.21,0.23 0.1,0 0.17,-0.07 0.17,-0.18 0,-0.13 -0.08,-0.22 -0.2,-0.22"
                            id="path180"
                            inkscape:connector-curvature="0"/>
                </g>
                <g
                        transform="translate(1135.5,138.75)"
                        id="g182">
                    <path
                            style="fill:#000000;fill-opacity:1;fill-rule:nonzero;stroke:none"
                            d="m 0,0 h -0.29 l -0.14,-0.74 c -0.04,-0.2 -0.04,-0.25 -0.04,-0.26 0,-0.06 0.02,-0.09 0.07,-0.09 l 0.16,0.05 h 0.03 l 0.01,-0.1 a 1.43,1.43 0 0 0 -0.46,-0.13 c -0.08,0 -0.12,0.04 -0.12,0.1 0,0.07 0.01,0.16 0.04,0.27 l 0.08,0.38 0.1,0.54 h -0.17 l 0.02,0.11 c 0.24,0.04 0.32,0.24 0.38,0.45 l 0.16,0.04 -0.08,-0.43 h 0.29 z"
                            id="path184"
                            inkscape:connector-curvature="0"/>
                </g>
                <g
                        transform="translate(1136.54,138.83)"
                        id="g186">
                    <path
                            style="fill:#000000;fill-opacity:1;fill-rule:nonzero;stroke:none"
                            d="m 0,0 c -0.17,0 -0.34,-0.24 -0.43,-0.6 h 0.04 c 0.32,0 0.56,0.18 0.56,0.42 C 0.17,-0.08 0.09,0 0,0 m -0.35,-0.73 h -0.1 L -0.48,-0.9 c 0,-0.18 0.06,-0.28 0.18,-0.28 0.11,0 0.25,0.06 0.46,0.2 l 0.03,-0.13 c -0.25,-0.17 -0.44,-0.24 -0.62,-0.24 -0.21,0 -0.33,0.13 -0.33,0.38 0,0.6 0.38,1.11 0.83,1.11 0.22,0 0.34,-0.1 0.34,-0.28 0,-0.34 -0.34,-0.59 -0.78,-0.59 m 0.4,1.1 -0.11,0.1 0.42,0.5 0.3,-0.08 z"
                            id="path188"
                            inkscape:connector-curvature="0"/>
                </g>
                <g
                        transform="translate(1143.09,139.42)"
                        id="g190">
                    <path
                            style="fill:#000000;fill-opacity:1;fill-rule:nonzero;stroke:none"
                            d="m 0,0 h -0.1 v 0.08 c 0,0.07 -0.02,0.14 -0.06,0.18 -0.07,0.06 -0.19,0.09 -0.45,0.09 h -0.25 l -0.18,-0.9 h 0.2 c 0.38,0 0.45,0.03 0.53,0.27 h 0.09 C -0.27,-0.52 -0.32,-0.75 -0.35,-1 h -0.1 v 0.06 a 0.2,0.2 0 0 1 -0.06,0.15 c -0.06,0.05 -0.13,0.06 -0.33,0.06 H -1.07 L -1.12,-0.98 A 3.9,3.9 0 0 1 -1.21,-1.6 c 0,-0.14 0.07,-0.21 0.2,-0.23 v -0.08 h -0.88 l 0.02,0.08 c 0.1,0 0.16,0.04 0.2,0.11 0.07,0.07 0.1,0.17 0.15,0.38 l 0.14,0.7 0.05,0.28 c 0.06,0.29 0.08,0.46 0.08,0.55 0,0.16 -0.06,0.23 -0.2,0.25 V 0.52 H 0.1 A 9.94,9.94 0 0 1 0,0"
                            id="path192"
                            inkscape:connector-curvature="0"/>
                </g>
                <g
                        transform="translate(1144.26,138.5)"
                        id="g194">
                    <path
                            style="fill:#000000;fill-opacity:1;fill-rule:nonzero;stroke:none"
                            d="m 0,0 -0.11,0.01 v 0.14 c 0,0.07 -0.05,0.12 -0.13,0.12 -0.06,0 -0.1,-0.04 -0.15,-0.1 -0.13,-0.15 -0.18,-0.4 -0.26,-0.8 l -0.07,-0.35 a 3.1,3.1 0 0 1 -0.3,-0.03 l 0.1,0.37 0.07,0.34 c 0.05,0.23 0.07,0.37 0.07,0.45 0,0.09 -0.02,0.13 -0.06,0.13 L -0.93,0.26 -1,0.23 -1.01,0.33 c 0.17,0.08 0.36,0.14 0.45,0.14 0.03,0 0.05,-0.02 0.06,-0.05 a 0.9,0.9 0 0 0 0,-0.16 c 0.15,0.14 0.3,0.21 0.39,0.21 0.06,0 0.14,-0.03 0.23,-0.1 C 0.07,0.24 0.03,0.13 0,0"
                            id="path196"
                            inkscape:connector-curvature="0"/>
                </g>
                <g
                        transform="translate(1145.46,138.82)"
                        id="g198">
                    <path
                            style="fill:#000000;fill-opacity:1;fill-rule:nonzero;stroke:none"
                            d="m 0,0 c -0.14,0 -0.28,-0.1 -0.4,-0.31 a 1.6,1.6 0 0 1 -0.22,-0.71 c 0,-0.12 0.06,-0.18 0.14,-0.18 a 0.8,0.8 0 0 1 0.44,0.21 5.55,5.55 0 0 1 0.25,0.93 A 0.5,0.5 0 0 1 0,0 m 0.16,-1.35 c -0.06,0 -0.08,0.04 -0.11,0.22 a 1.23,1.23 0 0 0 -0.63,-0.22 c -0.2,0 -0.33,0.11 -0.33,0.31 0,0.2 0.1,0.47 0.23,0.7 0.19,0.3 0.42,0.5 0.77,0.5 0.15,0 0.3,-0.04 0.44,-0.08 L 0.52,0.02 A 5.32,5.32 0 0 1 0.3,-1 c 0,-0.1 0.02,-0.15 0.07,-0.15 l 0.18,0.05 0.01,-0.11 a 1.74,1.74 0 0 0 -0.4,-0.13"
                            id="path200"
                            inkscape:connector-curvature="0"/>
                </g>
                <g
                        transform="translate(1147.26,138.75)"
                        id="g202">
                    <path
                            style="fill:#000000;fill-opacity:1;fill-rule:nonzero;stroke:none"
                            d="m 0,0 h -0.28 l -0.15,-0.74 c -0.04,-0.2 -0.04,-0.25 -0.04,-0.26 0,-0.06 0.02,-0.09 0.07,-0.09 l 0.16,0.05 h 0.03 l 0.01,-0.1 a 1.42,1.42 0 0 0 -0.46,-0.13 c -0.08,0 -0.12,0.04 -0.12,0.1 0,0.07 0.01,0.16 0.04,0.27 l 0.08,0.38 0.11,0.54 h -0.18 l 0.02,0.11 c 0.23,0.04 0.32,0.24 0.38,0.45 l 0.17,0.04 -0.09,-0.43 h 0.29 z"
                            id="path204"
                            inkscape:connector-curvature="0"/>
                </g>
                <g
                        transform="translate(1148.3,138.83)"
                        id="g206">
                    <path
                            style="fill:#000000;fill-opacity:1;fill-rule:nonzero;stroke:none"
                            d="m 0,0 c -0.17,0 -0.34,-0.24 -0.43,-0.6 h 0.04 c 0.32,0 0.56,0.18 0.56,0.42 C 0.17,-0.08 0.09,0 0,0 m -0.35,-0.73 h -0.1 A 0.94,0.94 0 0 1 -0.47,-0.9 c 0,-0.18 0.06,-0.28 0.18,-0.28 0.12,0 0.25,0.06 0.46,0.2 L 0.2,-1.11 c -0.25,-0.17 -0.44,-0.24 -0.62,-0.24 -0.21,0 -0.33,0.13 -0.33,0.38 0,0.6 0.39,1.11 0.83,1.11 0.22,0 0.34,-0.1 0.34,-0.28 0,-0.34 -0.33,-0.59 -0.77,-0.59"
                            id="path208"
                            inkscape:connector-curvature="0"/>
                </g>
                <g
                        transform="translate(1150.1,138.5)"
                        id="g210">
                    <path
                            style="fill:#000000;fill-opacity:1;fill-rule:nonzero;stroke:none"
                            d="m 0,0 -0.11,0.01 v 0.14 c 0,0.07 -0.05,0.12 -0.13,0.12 -0.06,0 -0.1,-0.04 -0.15,-0.1 -0.13,-0.15 -0.18,-0.4 -0.26,-0.8 l -0.07,-0.35 -0.3,-0.03 0.1,0.37 0.07,0.34 c 0.05,0.23 0.07,0.37 0.07,0.45 0,0.09 -0.02,0.13 -0.06,0.13 L -0.93,0.26 -1,0.23 -1.01,0.33 c 0.17,0.08 0.36,0.14 0.45,0.14 0.03,0 0.05,-0.02 0.06,-0.05 a 0.9,0.9 0 0 0 0,-0.16 c 0.15,0.14 0.3,0.21 0.39,0.21 0.06,0 0.15,-0.03 0.23,-0.1 C 0.07,0.24 0.03,0.13 0,0"
                            id="path212"
                            inkscape:connector-curvature="0"/>
                </g>
                <g
                        transform="translate(1151.47,137.48)"
                        id="g214">
                    <path
                            style="fill:#000000;fill-opacity:1;fill-rule:nonzero;stroke:none"
                            d="m 0,0 c -0.07,0 -0.11,0.04 -0.11,0.1 0,0.05 0.01,0.13 0.05,0.32 l 0.04,0.15 c 0.1,0.45 0.13,0.6 0.13,0.67 0,0.05 -0.03,0.08 -0.07,0.08 A 0.56,0.56 0 0 1 -0.23,1.22 0.69,0.69 0 0 1 -0.46,1.02 11.83,11.83 0 0 1 -0.67,0.05 4.32,4.32 0 0 1 -0.97,0.01 18.44,18.44 0 0 1 -0.73,1.2 c 0,0.08 -0.03,0.12 -0.08,0.12 A 0.62,0.62 0 0 1 -0.97,1.28 l -0.01,0.1 c 0.16,0.07 0.34,0.12 0.43,0.12 0.07,0 0.1,-0.05 0.1,-0.22 V 1.25 C -0.19,1.41 0.08,1.5 0.26,1.5 0.37,1.5 0.42,1.47 0.42,1.4 0.42,1.32 0.4,1.2 0.32,0.9 A 5.86,5.86 0 0 1 0.2,0.28 c 0,-0.07 0.03,-0.1 0.08,-0.1 L 0.46,0.23 V 0.13 C 0.29,0.06 0.09,0 0,0"
                            id="path216"
                            inkscape:connector-curvature="0"/>
                </g>
                <g
                        transform="translate(1152.54,137.48)"
                        id="g218">
                    <path
                            style="fill:#000000;fill-opacity:1;fill-rule:nonzero;stroke:none"
                            d="m 0,0 c -0.07,0 -0.12,0.04 -0.12,0.1 l 0.03,0.18 0.14,0.59 C 0.1,1.06 0.12,1.19 0.12,1.24 0.12,1.29 0.1,1.31 0.07,1.31 L -0.07,1.28 -0.09,1.27 -0.1,1.37 C 0.09,1.45 0.27,1.5 0.36,1.5 0.42,1.5 0.44,1.48 0.44,1.43 0.44,1.39 0.42,1.27 0.36,1.02 L 0.3,0.8 A 3,3 0 0 1 0.2,0.27 C 0.2,0.21 0.23,0.18 0.28,0.18 L 0.47,0.23 V 0.13 A 1.57,1.57 0 0 0 0,0 m 0.38,1.86 c -0.11,0 -0.18,0.07 -0.18,0.17 0,0.14 0.09,0.23 0.21,0.23 0.1,0 0.17,-0.07 0.17,-0.18 0,-0.13 -0.08,-0.22 -0.2,-0.22"
                            id="path220"
                            inkscape:connector-curvature="0"/>
                </g>
                <g
                        transform="translate(1154.27,138.75)"
                        id="g222">
                    <path
                            style="fill:#000000;fill-opacity:1;fill-rule:nonzero;stroke:none"
                            d="M 0,0 H -0.29 L -0.43,-0.74 A 1.6,1.6 0 0 1 -0.47,-1 c 0,-0.06 0.02,-0.09 0.07,-0.09 l 0.16,0.05 h 0.03 v -0.1 a 1.4,1.4 0 0 0 -0.45,-0.13 c -0.08,0 -0.12,0.04 -0.12,0.1 0,0.07 0.01,0.16 0.04,0.27 l 0.08,0.38 0.1,0.54 h -0.17 l 0.02,0.11 c 0.23,0.04 0.31,0.24 0.38,0.45 l 0.16,0.04 -0.08,-0.43 h 0.29 z"
                            id="path224"
                            inkscape:connector-curvature="0"/>
                </g>
                <g
                        transform="translate(1155.3,138.83)"
                        id="g226">
                    <path
                            style="fill:#000000;fill-opacity:1;fill-rule:nonzero;stroke:none"
                            d="m 0,0 c -0.17,0 -0.34,-0.24 -0.43,-0.6 h 0.04 c 0.32,0 0.56,0.18 0.56,0.42 C 0.17,-0.08 0.09,0 0,0 m -0.35,-0.73 h -0.1 A 1.13,1.13 0 0 1 -0.48,-0.9 c 0,-0.18 0.06,-0.28 0.18,-0.28 0.11,0 0.25,0.06 0.45,0.2 l 0.04,-0.13 c -0.25,-0.17 -0.44,-0.24 -0.62,-0.24 -0.21,0 -0.33,0.13 -0.33,0.38 0,0.6 0.38,1.11 0.83,1.11 0.21,0 0.34,-0.1 0.34,-0.28 0,-0.34 -0.34,-0.59 -0.78,-0.59 m 0.4,1.1 -0.11,0.1 0.42,0.5 0.3,-0.08 z"
                            id="path228"
                            inkscape:connector-curvature="0"/>
                </g>
                <g
                        transform="translate(1139.19,138.15)"
                        id="g230">
                    <path
                            style="fill:#000000;fill-opacity:1;fill-rule:nonzero;stroke:none"
                            d="M 0,0 C 0.23,0 0.42,0.2 0.42,0.44 0.42,0.7 0.23,0.88 0,0.88 A 0.43,0.43 0 0 1 -0.42,0.44 C -0.42,0.2 -0.23,0 0,0"
                            id="path232"
                            inkscape:connector-curvature="0"/>
                </g>
                <g
                        transform="translate(1124.84,138.15)"
                        id="g234">
                    <path
                            style="fill:#000000;fill-opacity:1;fill-rule:nonzero;stroke:none"
                            d="M 0,0 C 0.23,0 0.42,0.2 0.42,0.44 0.42,0.7 0.23,0.88 0,0.88 A 0.43,0.43 0 0 1 -0.42,0.44 C -0.42,0.2 -0.23,0 0,0"
                            id="path236"
                            inkscape:connector-curvature="0"/>
                </g>
                <g
                        transform="translate(1112.8,135.87)"
                        id="g238">
                    <path
                            style="fill:none;stroke:#000000;stroke-width:0.31799999;stroke-linecap:butt;stroke-linejoin:miter;stroke-miterlimit:4;stroke-dasharray:none;stroke-opacity:1"
                            d="M 0,0 H 42.94"
                            id="path240"
                            inkscape:connector-curvature="0"/>
                </g>
                <g
                        transform="translate(1125.7,147.82)"
                        id="g242">
                    <path
                            style="fill:#004494;fill-opacity:1;fill-rule:nonzero;stroke:none"
                            d="m 0,0 c -0.39,-0.12 -0.79,-0.14 -1.15,-0.35 0.85,0.04 1.7,-0.1 2.53,-0.38 0.3,-0.1 0.56,-0.24 0.82,-0.42 0.13,-0.1 0.2,-0.2 0.33,-0.27 0.16,-0.1 0.4,-0.1 0.56,-0.04 h 0.16 c 0.5,0.14 1.02,0.28 1.35,0.66 0,-0.03 0.03,-0.03 0.06,-0.03 -0.1,-0.28 -0.1,-0.6 -0.3,-0.84 0,-0.03 -0.03,-0.1 0.04,-0.13 h 0.06 c -0.03,0 -0.06,0 -0.06,-0.04 0,-0.07 0.1,0 0.13,-0.07 C 4.37,-1.94 4.2,-1.98 4.1,-2.11 4.1,-2.15 4.17,-2.15 4.2,-2.15 4.13,-2.22 4.04,-2.19 4,-2.25 c 0,0 0.04,-0.04 0.07,-0.04 -0.03,0 -0.07,0 -0.07,-0.04 v -0.1 c -0.1,0 -0.13,-0.07 -0.2,-0.1 0.14,-0.1 0.24,0 0.37,0 -0.36,-0.14 -0.66,-0.35 -1.02,-0.45 -0.06,0 0,-0.1 -0.06,-0.1 0.1,-0.08 0.16,0.03 0.26,0.03 -0.46,-0.28 -0.92,-0.52 -1.41,-0.84 0,0 -0.07,-0.07 -0.07,-0.13 H 1.74 c -0.06,-0.04 -0.03,-0.14 -0.1,-0.21 0.17,-0.1 0.36,0.14 0.46,0 0.03,0 -0.06,-0.04 -0.13,-0.04 -0.03,0 -0.03,-0.07 -0.07,-0.07 H 1.8 c -0.06,-0.07 -0.13,-0.1 -0.13,-0.2 -0.06,0 -0.13,0 -0.16,-0.07 0.72,0.1 1.48,0.03 2.17,0.41 0.52,0.28 1.01,0.66 1.44,1.15 0,0 0.03,-0.04 0.03,-0.07 C 5.05,-3.47 4.85,-3.72 4.6,-3.92 4.4,-4.02 4.27,-4.2 4.1,-4.27 L 3.8,-4.47 C 2.6,-4.93 1.16,-4.72 0.1,-5.6 c 0,0.04 -0.03,0.04 -0.07,0.04 -0.06,-0.07 -0.16,-0.1 -0.2,-0.18 0,-0.07 0.1,-0.03 0.14,-0.03 0.2,0.14 0.4,0.24 0.62,0.31 C 0.33,-5.6 0.07,-5.8 -0.2,-5.87 a 5.21,5.21 0 0 0 -1.64,0 c 0.33,0.2 0.66,0.45 1.02,0.66 -0.1,0.06 -0.2,0.06 -0.3,0.06 -0.16,-0.03 -0.36,0.07 -0.52,0 -0.5,-0.24 -1.06,-0.1 -1.32,-0.65 H -13.01 V 9.55 H 6.8 C 6.41,9.33 5.95,9.16 5.66,8.78 5.39,8.43 5.13,8.08 5.03,7.67 4.61,7.39 4.34,6.97 4.11,6.56 3.81,5.96 3.39,5.45 3.46,4.79 3.52,4.23 3.66,3.71 3.76,3.12 3.78,2.92 3.82,2.74 3.88,2.53 3.95,2.33 3.88,2.08 3.98,1.91 4.05,1.81 4.01,1.67 4.14,1.6 V 1.46 C 4.18,1.42 4.18,1.39 4.24,1.39 V 1.25 C 4.5,0.9 4.83,0.59 5,0.2 5.06,-0.01 4.67,0.1 4.5,0.16 4.18,0.34 3.98,0.61 3.72,0.86 3.72,0.86 3.69,0.82 3.69,0.79 3.82,0.55 4.31,0.23 4.05,0.06 3.92,-0.01 3.75,0.16 3.62,0.02 c -0.03,-0.06 0,-0.13 0,-0.2 -0.2,0.14 -0.4,0.07 -0.59,0.14 C 2.9,-0.01 2.87,0.26 2.7,0.26 2.28,0.37 1.88,0.48 1.45,0.51 0.85,0.6 0.3,0.7 -0.29,0.6 -0.82,0.56 -1.23,0.14 -1.54,-0.28 v -0.1 c 0.23,-0.04 0.33,0.17 0.52,0.24 0.33,0.07 0.63,0.21 0.95,0.28 0.5,0.1 0.96,0.24 1.42,0.2 0.1,0 0.23,0.04 0.33,0 C 1.08,0.39 0.56,0.18 0,0"
                            id="path244"
                            inkscape:connector-curvature="0"/>
                </g>
                <g
                        transform="translate(1123.86,146.16)"
                        id="g246">
                    <path
                            style="fill:#ffffff;fill-opacity:1;fill-rule:nonzero;stroke:none"
                            d="m 0,0 c -0.1,-0.03 -0.2,-0.1 -0.16,-0.17 0.1,-0.14 0.3,0.03 0.46,0.03 -0.2,-0.07 -0.43,-0.03 -0.6,-0.2 0.14,-0.11 0.27,-0.04 0.4,-0.04 0,-0.07 0.06,-0.07 0.1,-0.1 C 0.03,-0.55 -0.1,-0.7 -0.13,-0.8 -0.2,-0.97 -0.36,-1.04 -0.46,-1.18 v -0.1 c -0.33,-0.32 -0.69,-0.52 -0.95,-0.9 0.03,0 0.03,-0.04 0.03,-0.07 -0.06,-0.1 -0.2,-0.14 -0.23,-0.25 0,-0.03 0,-0.07 0.03,-0.07 0.4,0.14 0.7,0.45 1.05,0.6 0.27,0.06 0.46,0.24 0.7,0.3 l 0.52,0.14 c 0,-0.03 0,-0.07 0.03,-0.07 H 1 C 0.96,-1.66 0.83,-1.63 0.86,-1.66 c 0.1,-0.1 0.3,-0.07 0.43,0 0.1,0.06 0.2,0.06 0.33,0.06 0.03,0 0.03,0.07 0.03,0.1 0.1,-0.03 0.17,-0.03 0.26,-0.03 0.8,0.18 1.55,0.35 2.27,0.73 -0.85,0.7 -1.94,0.94 -2.96,1.25 0.1,0 0.2,-0.1 0.3,0 C 1.36,0.59 1.16,0.52 0.99,0.62 1.03,0.62 1.09,0.59 1.13,0.66 0.85,0.8 0.59,0.8 0.32,0.86 0.49,0.9 0.59,1.04 0.59,1.22 0.59,1.25 0.53,1.25 0.49,1.25 0.09,1.05 -0.16,0.65 -0.33,0.21 -0.1,0.07 0.17,0.17 0.4,0.14 0.3,0.04 0.13,0.04 0,0"
                            id="path248"
                            inkscape:connector-curvature="0"/>
                </g>
                <g
                        transform="translate(1122.5,147.51)"
                        id="g250">
                    <path
                            style="fill:#ffffff;fill-opacity:1;fill-rule:nonzero;stroke:none"
                            d="m 0,0 c -0.34,-0.38 -0.7,-0.73 -1.12,-0.97 -0.3,-0.63 -0.62,-1.18 -1.05,-1.77 0,-0.04 0.04,-0.07 0.04,-0.07 0.78,0.94 1.5,1.73 2.52,2.4 0.07,0.03 -0.1,-0.1 0.04,-0.07 0.42,0.1 0.55,0.55 0.75,0.9 0.26,0.45 0.72,0.62 1.05,1 0,-0.03 0,-0.07 -0.03,-0.1 C 2.23,1.28 2.26,1.28 2.3,1.28 2.43,1.38 2.6,1.35 2.7,1.49 2.43,1.59 2.1,1.63 1.84,1.53 A 6.45,6.45 0 0 1 0,0"
                            id="path252"
                            inkscape:connector-curvature="0"/>
                </g>
                <g
                        transform="translate(1123,146.85)"
                        id="g254">
                    <path
                            style="fill:#ffffff;fill-opacity:1;fill-rule:nonzero;stroke:none"
                            d="m 0,0 c 0.03,0.06 0.07,0.07 0.1,0.14 0,0.03 0,0.06 -0.04,0.06 -0.13,-0.03 -0.23,-0.16 -0.26,-0.3 0,-0.04 0.04,-0.04 0.07,-0.04 0.06,0.04 0.1,0.07 0.13,0.14"
                            id="path256"
                            inkscape:connector-curvature="0"/>
                </g>
                <g
                        transform="translate(1125.63,144.22)"
                        id="g258">
                    <path
                            style="fill:#ffffff;fill-opacity:1;fill-rule:nonzero;stroke:none"
                            d="m 0,0 c -0.13,-0.07 -0.36,-0.07 -0.4,-0.24 -0.03,-0.07 0.1,-0.04 0.17,-0.04 0.23,0.1 0.5,0 0.69,0.21 C 0.39,0 0.29,-0.03 0.23,0.07 0.16,0.1 0.07,0.03 0,0"
                            id="path260"
                            inkscape:connector-curvature="0"/>
                </g>
                <g
                        transform="translate(1129.2,142.34)"
                        id="g262">
                    <path
                            style="fill:#004494;fill-opacity:1;fill-rule:nonzero;stroke:none"
                            d="M 0,0 C 0.2,0.05 0.4,0.17 0.6,0.24 V 0.17 c 0.48,0.21 0.84,0.66 1.34,0.84 0.03,0 0.1,-0.07 0.16,-0.04 0.3,0.28 0.62,0.6 1.05,0.52 0,-0.03 0,-0.07 0.04,-0.07 0.03,0 0.06,0 0.06,0.04 L 2.85,1.14 C 2.82,1.11 2.85,1.08 2.89,1.08 3.05,1.14 3.15,1.28 3.32,1.35 3.28,1.32 3.28,1.25 3.25,1.21 2.63,0.73 2.17,0.17 1.68,-0.42 H 0.66 c 0,0.04 0,0.07 -0.04,0.07 -1.15,-0.1 -2.26,-0.07 -3.41,-0.07 0.66,0.1 1.31,0.32 1.97,0.39 0.26,0 0.52,-0.04 0.82,0.03"
                            id="path264"
                            inkscape:connector-curvature="0"/>
                </g>
                <g
                        transform="translate(1142.14,144.11)"
                        id="g266">
                    <path
                            style="fill:#e20030;fill-opacity:1;fill-rule:nonzero;stroke:none"
                            d="M 0,0 C 0.08,0.25 0.17,0.52 0.03,0.76 -0.17,1.07 0.23,1.18 0.36,1.39 0.46,1.56 0.3,1.67 0.26,1.84 0.23,1.91 0.1,1.87 0.03,1.98 0.26,2.08 0.63,2.29 0.46,2.6 0.36,2.78 0.2,3.05 0.4,3.23 0.62,3.37 0.99,3.33 1.09,3.58 1.25,3.99 0.89,4.34 0.69,4.68 0.59,4.89 0.46,5.03 0.33,5.24 0.2,5.48 0.03,5.69 -0.03,5.97 -0.13,6.25 0,6.49 0,6.77 0.03,7.29 -0.1,7.81 -0.23,8.33 -0.33,8.57 -0.36,8.85 -0.46,9.09 -0.49,9.23 -0.53,9.37 -0.62,9.51 a 0.3,0.3 0 0 0 0,0.24 c 0.13,0.1 0.26,0.2 0.4,0.35 a 0.4,0.4 0 0 1 -0.14,0.52 c -0.23,0.1 -0.2,-0.25 -0.36,-0.32 h -0.1 c -0.03,0.1 0.03,0.14 0.1,0.21 0,0.04 0,0.1 -0.04,0.1 -0.13,0 -0.26,0.04 -0.29,0.11 -0.33,0.49 -0.79,0.73 -1.28,0.94 0.13,-0.04 0.26,-0.07 0.4,-0.07 0.22,-0.04 0.49,-0.04 0.68,0.07 0.17,0.07 0.2,0.34 0.27,0.52 0.06,0.14 -0.04,0.34 -0.1,0.45 -0.17,0.28 -0.43,0.45 -0.7,0.59 H 13.8 V -2.23 H -4.73 c 0.2,0.7 0.6,1.4 1.2,1.85 0.13,0.07 0.3,0.1 0.45,0.14 0.56,0 1.12,-0.18 1.68,-0.25 0.06,0 0.13,-0.03 0.2,-0.07 0.2,-0.03 0.42,-0.03 0.62,0.04 0.23,0.07 0.5,0.2 0.59,0.52"
                            id="path268"
                            inkscape:connector-curvature="0"/>
                </g>
                <g
                        transform="translate(1140.9,150.95)"
                        id="g270">
                    <path
                            style="fill:#9c9e9f;fill-opacity:1;fill-rule:nonzero;stroke:none"
                            d="m 0,0 c -0.2,0.05 -0.36,0 -0.56,0 -0.26,-0.07 -0.5,-0.1 -0.72,-0.2 0.2,0.13 0.4,0.27 0.62,0.34 0.17,0.03 0.33,0.14 0.5,0.14 0.2,0.03 0.39,0.1 0.55,0.03 C 0.56,0.24 0.82,0.24 0.85,0.14 0.92,-0.06 0.75,-0.28 0.55,-0.42 0.52,-0.49 0.65,-0.52 0.65,-0.59 0.62,-0.66 0.52,-0.69 0.45,-0.69 0.4,-0.73 0.33,-0.83 0.27,-0.9 0.34,-0.9 0.27,-1 0.34,-1 0.21,-1.18 0.4,-1.53 0.21,-1.6 c -0.23,-0.07 -0.5,-0.07 -0.76,0 0.13,0.04 0.3,-0.03 0.4,0.1 v 0.15 c 0,0.03 -0.04,0.03 -0.07,0.03 -0.03,-0.03 -0.07,-0.03 -0.07,-0.03 0,0.07 -0.06,0.14 -0.1,0.14 -0.2,-0.04 -0.36,0.07 -0.49,0.2 0.1,0.04 0.2,0.07 0.3,0.04 0.1,0 0.06,0.17 0.16,0.24 h 0.1 c 0.2,0.28 0.6,0.35 0.66,0.63 0,0.07 -0.2,0.07 -0.33,0.1"
                            id="path272"
                            inkscape:connector-curvature="0"/>
                </g>
            </g>
        </g>
    </g>
</svg>
